<?xml version="1.0" encoding="utf-8"?>
<!DOCTYPE svg PUBLIC "-//W3C//DTD SVG 1.0//EN" "http://www.w3.org/TR/2001/REC-SVG-20010904/DTD/svg10.dtd">
<svg version="1.0" xmlns="http://www.w3.org/2000/svg" width="570px" height="570px" viewBox="0 0 570 570" preserveAspectRatio="xMidYMid meet">
 <g fill="#2c363d">
  <path d="M251.4 568.4 c-70.2 -8.5 -136.7 -43.9 -181.7 -96.9 l-6.9 -8 9.9 -1.1 c7.7 -0.8 12.1 -2 20.8 -5.5 10.9 -4.5 30.5 -16 42 -24.8 7.1 -5.4 23.1 -21.2 26.5 -26.1 l2.4 -3.5 -2.5 2.1 c-1.3 1.1 -6.9 5.9 -12.4 10.6 -20 17.1 -37.9 27.8 -64 38.1 -17.8 7 -22.9 8.4 -25.1 6.6 -1.9 -1.6 -14.8 -19.9 -14.3 -20.3 0.2 -0.2 5.6 -1.1 11.9 -2 12.4 -1.9 31.2 -6.4 37.3 -8.9 4.4 -1.9 5 -4.1 0.9 -3.3 -5.6 1.1 -29.1 2.8 -33.6 2.5 -3.8 -0.3 -4.6 -0.1 -4.6 1.2 0 1.4 -1.4 1.8 -8.2 2.1 -9.9 0.5 -9.1 1.2 -17.3 -14.4 l-5.6 -10.8 9.8 0 c5.4 0 12.4 0.4 15.7 1 3.2 0.5 11 1.2 17.4 1.6 l11.5 0.7 -0.6 -2.4 c-0.4 -1.3 -0.7 -2.9 -0.7 -3.5 0 -0.6 -5.6 -1.5 -14 -2.2 -13.2 -1.2 -42.7 -6.5 -44.1 -8 -0.8 -0.9 -7.9 -19.9 -7.9 -21.2 0 -1.6 2.6 -1.2 17.6 2.5 15.5 3.8 37.3 7.9 38.1 7.2 0.2 -0.3 -1.2 -2.1 -3.1 -4.1 -2 -1.9 -3.6 -3.9 -3.6 -4.4 0 -1 -4.6 -1.8 -30.7 -5.7 -9.2 -1.4 -17.7 -2.7 -18.9 -3 -1.7 -0.4 -2.5 -2.3 -4.7 -11.4 -1.5 -6 -2.7 -11.7 -2.7 -12.5 0 -2.5 4.8 -2 21.6 2.6 8.5 2.2 15.6 3.9 15.9 3.6 0.3 -0.2 0 -3.1 -0.7 -6.2 -1.3 -6.6 0.2 -5.6 -22.3 -14.8 l-13 -5.3 0.4 4.2 c0.3 3.7 0 4.3 -1.7 4.3 -1.1 0 -2.3 -0.7 -2.6 -1.6 -1 -2.7 -0.7 -7.4 0.6 -7.4 0.7 0 0.4 -0.6 -0.5 -1.3 -1.3 -0.9 -1.8 -3.6 -2.3 -12.9 -0.7 -11.7 -0.7 -11.8 1.5 -11.8 1.2 0 6.1 2.3 10.8 5 14.7 8.8 28.3 15.2 28.3 13.5 0 -2.4 6.8 -1.8 11.7 0.9 6 3.5 8.3 4.1 8.3 2.2 0 -1.9 -6.2 -6.2 -16.5 -11.4 -11.2 -5.6 -22.8 -12.8 -34.6 -21.3 l-10.2 -7.3 0.7 -11 c0.8 -12.6 1.3 -15.6 3 -15.6 0.7 0 3.7 2.3 6.8 5 6.1 5.4 23.9 19 24.9 19 0.3 0 0.4 -2.3 0.1 -5.2 -0.5 -4.8 -0.9 -5.6 -6.1 -10.2 -13.7 -12.3 -25.1 -24.1 -24.7 -25.5 0.2 -0.9 1.6 -6.9 3.1 -13.3 2.2 -9.1 3.1 -11.8 4.4 -11.8 0.9 0.1 3.9 3.3 6.6 7.2 2.8 3.9 6.2 8.6 7.6 10.4 l2.7 3.4 0.5 -14.3 c0.4 -12.6 0.2 -14.5 -1.4 -16.7 -1 -1.4 -3.6 -5 -5.7 -8 l-4 -5.5 5.4 -12.5 c36.4 -84.2 114.1 -146.7 205 -165 34.5 -6.9 77.3 -6.9 111.8 0 96 19.4 174.7 85.9 210.3 177.9 l4.4 11.4 -2.9 3.6 c-2.4 3.1 -2.7 4.1 -2.1 7.6 0.5 2.2 0.8 8 0.8 12.9 l0.1 8.9 3.5 -4.7 c2.1 -2.7 4.4 -4.6 5.5 -4.6 1.1 0 2 0.3 2 0.6 0 0.3 0.9 4.9 1.9 10.2 1 5.4 2.1 11.1 2.4 12.8 0.6 2.9 0 3.6 -10.7 12.6 l-11.2 9.6 -1.1 5.8 c-0.6 3.3 -1 6 -0.9 6 0 0.1 5.2 -3.4 11.5 -7.8 6.2 -4.3 12.1 -7.8 13 -7.6 1.4 0.3 1.6 2.2 1.9 13 l0.3 12.7 -12.6 7.3 c-6.8 4 -16.2 9.3 -20.7 11.8 -11 6 -17.1 10 -16.5 10.6 0.3 0.3 2.3 -0.4 4.6 -1.5 4.2 -2.2 12 -2.8 13.7 -1.1 0.7 0.7 5.1 -0.9 13.8 -5 7 -3.3 13.9 -6 15.3 -6 2.5 0 2.5 0.1 1.9 5.3 -0.3 2.8 -0.9 8 -1.2 11.4 l-0.6 6.2 -12.2 4.4 c-6.6 2.5 -13 4.7 -14.1 5.1 -1.5 0.4 -2.5 2.3 -3.7 6.6 -0.9 3.3 -1.4 6 -1.3 6 0.2 0 5.9 -1.3 12.7 -3 15.5 -3.8 16 -3.8 15.2 -0.2 -2.4 9.9 -5.2 20.4 -5.8 20.9 -0.3 0.3 -5 1.2 -10.3 1.9 -5.4 0.8 -15.1 2.3 -21.7 3.5 -11.4 2.1 -12 2.4 -17.1 6.8 -5.2 4.5 -5.3 4.6 -2.7 4.9 1.5 0.2 10.8 -1.2 20.7 -2.9 9.9 -1.8 20.4 -3.4 23.3 -3.7 5.1 -0.4 5.2 -0.3 4.3 2 -0.5 1.2 -2.3 5.9 -4 10.4 l-3.1 8.1 -11.8 1.7 c-6.4 0.9 -19.5 2.2 -28.9 2.8 -16.6 1.1 -17.3 1.2 -17.3 3.3 0 1.1 -0.5 2.6 -1.1 3.2 -1.8 1.8 6.9 2.7 19 1.9 5.8 -0.3 16.2 -0.9 23 -1.3 l12.4 -0.6 -5.3 10 c-8.1 15.2 -7.3 14.6 -15.8 13.7 -5.7 -0.5 -7.2 -1 -7.2 -2.3 0 -1.3 -0.9 -1.5 -5 -1.3 -2.8 0.2 -12.9 -0.4 -22.6 -1.3 -9.6 -0.9 -18.2 -1.4 -19.2 -1 -3.9 1.6 25.2 9.9 46 13.2 l10.6 1.7 -6 8.8 c-9.4 13.5 -6.9 12.9 -26.5 6.2 -33.4 -11.4 -50.1 -20.3 -74.3 -39.7 l-12.5 -10.1 5.6 6.5 c13.8 15.8 36.8 33.2 56.2 42.4 15.5 7.4 25.2 10.5 32.6 10.5 3.4 0 6.1 0.3 6.1 0.8 0 0.4 -4.4 5.5 -9.8 11.4 -46.3 51 -109.2 83.3 -177.8 91.3 -15.9 1.9 -51.5 1.8 -67 -0.1z m-22.4 -52.4 c0 -2 0.5 -3 1.5 -3 0.8 0 1.5 -0.9 1.5 -2 0 -1.1 0.4 -2 0.9 -2 0.5 0 -0.4 -2.4 -2 -5.2 -3.5 -6.5 -3.9 -11.5 -0.8 -12 2 -0.3 2 -0.4 -0.7 -3.3 l-2.8 -3 -2.2 7 c-1.2 4 -2.4 10.9 -2.6 16.2 l-0.5 9.2 3.1 0.4 c1.7 0.2 3.4 0.5 3.9 0.5 0.4 0.1 0.7 -1.1 0.7 -2.8z m36.2 -17.7 c-6.4 -12.2 -9.2 -20.6 -9.2 -27.4 l0 -5.9 3.4 0 c2.7 0 3.6 0.5 4.1 2.3 0.4 1.2 3.2 6.8 6.3 12.5 5.3 9.8 7.1 11.3 7.2 5.9 0 -1.1 0.7 -3.4 1.6 -5.3 1.6 -3.2 1.5 -3.6 -1.4 -9.7 -3.7 -8 -12.4 -18.2 -36.3 -42.4 l-18.9 -19.2 0 -10.8 0 -10.8 -8.2 12.3 -8.1 12.4 3.3 8.6 c6.1 16.1 16.4 33.7 24.6 42.2 l2.4 2.5 0 -6.2 c0 -8.9 1.1 -11.3 5.3 -11.3 l3.3 0 1.8 11.8 c1.8 12.3 4.5 20.5 8.7 26.3 9.8 13.4 12.2 16.3 10.1 12.2z m164.1 -17 c-6.2 -9.2 -11.3 -20 -11.3 -24 0 -3 0.3 -3.3 3.1 -3.3 2.5 0 4.4 1.4 10.5 7.5 8.3 8.4 19.4 14.5 29.9 16.5 3.3 0.6 7.1 1.3 8.5 1.6 1.4 0.3 -0.4 -1.2 -4 -3.3 -3.6 -2.2 -11.9 -7.7 -18.5 -12.4 -8 -5.7 -17.3 -11.2 -27.9 -16.3 -14.8 -7.1 -19.6 -8.5 -19.6 -5.5 0 0.5 -0.7 0.9 -1.5 0.9 -2.4 0 -1.8 2 3.6 12.6 9.3 18 15.3 24.9 26.1 29.9 2.9 1.4 5.4 2.5 5.5 2.5 0 0 -1.9 -3 -4.4 -6.7z m-35 -4 c-1.7 -5.7 -5.3 -26.4 -5.3 -31 0 -2 0.5 -3.3 1.3 -3.3 0.6 0 -0.1 -0.9 -1.8 -2 -1.6 -1.1 -3.5 -2 -4 -2 -0.6 0 -1.7 2.1 -2.4 4.7 -0.6 2.6 -2.7 8.2 -4.5 12.3 l-3.3 7.6 10.1 9.1 c5.6 5.1 10.4 9.2 10.8 9.2 0.3 0.1 -0.1 -2 -0.9 -4.6z m-279.4 -2.9 c4.1 -1.4 12.3 -6.6 19.2 -12.4 3 -2.5 3.3 -6 0.4 -6 -0.7 0 -6.8 4.1 -13.6 9.1 -6.8 5 -13.6 9.7 -15.1 10.5 -1.6 0.8 -2.8 1.6 -2.8 1.8 0 0.5 5.6 -0.9 11.9 -3z m180.4 -37.7 c-10.7 -3.2 -10.8 -3.2 -20 -16.3 -4.8 -6.9 -13 -20 -18.1 -29.2 -5.1 -9.2 -10.6 -18 -12.2 -19.6 -1.6 -1.7 -6 -4.8 -9.7 -7.1 -8.4 -5.1 -9.8 -7.7 -11.8 -22.1 -2.7 -19.4 -2.8 -20 -3.3 -17.9 -2.2 10.6 -8 33.3 -10.8 42.9 -1.9 6.5 -3.4 12 -3.2 12.1 0.2 0.2 2.3 -0.1 4.8 -0.5 2.5 -0.5 7.8 -0.9 11.8 -1 l7.2 0 0 11.8 0 11.8 20.3 18.4 c11.1 10.2 23.1 21.3 26.6 24.6 l6.5 6.2 7.3 -6.7 7.3 -6.6 -2.7 -0.8z m99 -19.9 c-4.5 -4.5 -8.5 -7.9 -8.9 -7.5 -0.4 0.4 0.3 1.9 1.7 3.3 3.1 3.4 13.8 12.4 14.7 12.4 0.4 0 -3 -3.7 -7.5 -8.2z m69.5 -9.5 c1.9 -0.7 -0.7 -1.4 -11.5 -3.2 -12.9 -2.1 -22.6 -4.7 -31.5 -8.5 -3.1 -1.3 -3.8 -2.2 -3.8 -4.3 0 -2.6 -0.1 -2.6 -1.7 -1 -1.2 1.2 -1.4 2 -0.8 2.5 0.6 0.4 3.6 2.6 6.6 4.9 13.6 10.4 30.4 14.2 42.7 9.6z m-342.2 -0.4 c5.8 -1 12.9 -4.4 15.2 -7.2 1 -1.1 -0.1 -1 -4.5 0.5 -3.2 1 -10.4 2.7 -16.1 3.6 -10 1.6 -10.2 1.7 -7 2.8 4.3 1.6 5.2 1.6 12.4 0.3z m159.8 -26.9 c3.3 0 3.4 -0.2 4.1 -4.7 0.4 -2.7 3 -9.2 5.9 -14.9 l5.3 -10.1 -3.1 -0.9 c-2.7 -0.8 -3.1 -1.4 -3.4 -4.9 -0.2 -2.7 0.1 -4.3 1.2 -5.1 1.4 -1 0.8 -1.5 -3.7 -3.8 -3 -1.4 -5.7 -2.6 -6.1 -2.6 -0.4 0 -3.7 1.8 -7.3 4 -6.3 3.8 -6.5 4 -3.5 4 3 0 3.2 0.3 3.2 3.3 0 4.4 -1.5 5.7 -6.7 5.7 -4 0 -4.3 -0.2 -4.3 -2.7 l0 -2.7 -3.3 3.2 c-1.8 1.8 -3.9 3.2 -4.7 3.2 -0.8 0 0.4 1.8 2.7 4.3 7.3 7.6 13 17.4 17.4 30 l2.4 6.8 0.3 -6 0.3 -6.1 3.3 0z m190.2 6.6 c5.7 -1.6 4.9 -1.9 -8.1 -3.3 -5.8 -0.7 -9.7 -0.6 -14 0.3 -8.8 1.9 -22.2 1.8 -23.3 -0.2 -0.7 -1.3 -1.1 -1.3 -3.2 0.4 l-2.3 1.9 10.9 1.2 c6 0.7 11.6 1.4 12.4 1.6 3 0.7 22.9 -0.7 27.6 -1.9z m-339.9 -0.8 l7.8 -1.2 -10.5 -1.3 c-9.7 -1.1 -25.2 -0.8 -27.5 0.6 -1.6 0.9 8.5 2.9 15.7 3 3.7 0.1 10.2 -0.4 14.5 -1.1z m255.8 -10.8 c22.3 -8.8 38.5 -19.4 58 -37.8 19 -18 26.7 -28.2 32.9 -43.9 3.8 -9.9 6.9 -24.8 6.4 -31.4 l-0.3 -4 -7.1 10.8 c-22.5 34.1 -64.6 77.6 -91.7 94.7 -4.6 2.8 -8.2 5.6 -8.1 6.1 0.1 0.6 0.5 2.7 0.9 4.8 0.3 2 0.8 3.7 1 3.7 0.3 0 3.9 -1.4 8 -3z m-194 -3.2 c0.9 -2.4 1.2 -4.4 0.7 -4.6 -0.5 -0.1 -3.6 -1.9 -6.8 -3.8 -19.3 -11.6 -45.3 -36.9 -68.7 -66.9 -4.6 -5.9 -13.8 -19.3 -23.6 -34.5 l-2.3 -3.5 0.6 11 c1.2 24 9.7 39.6 36.1 66 16.7 16.7 22.1 21.1 34.6 28.3 7.2 4.2 24.9 12.1 27 12.2 0.4 0 1.4 -1.9 2.4 -4.2z m252 -0.8 c4.4 -0.5 12.9 -1.4 18.8 -2 29.7 -3 48.2 -13.7 58.5 -33.7 2.3 -4.4 4.2 -8.6 4.2 -9.1 0 -1.8 -26.2 9.5 -28.2 12 -2.4 3.2 -2.2 3.8 1.2 3.8 2.7 0 3 0.3 3 3.3 0 3.1 -0.4 3.4 -10.8 8.4 -12.3 6 -26.2 10.3 -33.4 10.3 l-4.9 0 0.3 -3.7 c0.3 -3.4 1 -4.2 7.3 -8.6 11.2 -7.6 16.1 -11.7 20.1 -16.9 2 -2.7 3.5 -5.1 3.2 -5.3 -0.2 -0.2 -2.4 0.9 -4.8 2.4 -2.5 1.5 -8.6 5.3 -13.6 8.4 -12.4 7.7 -27.6 21 -28.7 25.1 -0.5 1.7 -1.5 3.8 -2.3 4.7 -1.9 2.1 -1.8 3.3 0.4 2.4 0.9 -0.3 5.3 -1 9.7 -1.5z m-322.5 -4.5 c0 -1 -1 -1.5 -3.1 -1.5 -7.9 0 -26.8 -7.6 -39.1 -15.8 -3.3 -2.1 -3.8 -3 -3.8 -6.3 0 -2.8 0.4 -3.9 1.5 -3.9 1.1 0 1.2 -0.6 0.6 -2.2 -0.6 -1.8 -3.9 -3.5 -13.5 -7.4 -6.9 -2.8 -12.6 -4.7 -12.6 -4.2 0 0.6 1.8 4.8 4 9.5 6.9 14.8 19.1 24.6 36.7 29.4 14.2 3.9 29.3 5.2 29.3 2.4z m-1.6 -14.9 c-0.5 -2.8 -1.8 -4.6 -5.9 -7.9 -5 -4 -13.1 -9.7 -19.9 -14.2 l-3.1 -2 3.5 4.8 c1.9 2.6 5.7 7 8.5 9.7 4.9 4.9 16.7 14 17.3 13.5 0.2 -0.2 0 -1.9 -0.4 -3.9z m130.6 -11.2 c0 -0.1 -1.6 -0.5 -3.6 -0.8 -3.9 -0.8 -13.1 -9.4 -13.6 -12.9 -0.2 -1.1 -1.2 -2.6 -2.4 -3.3 -2 -1.4 -2 -1.3 -1.4 4.4 0.4 3.2 1 6.7 1.4 7.8 0.3 1.1 4.3 4.2 8.8 7 l8.3 5.1 1.2 -3.6 c0.7 -2 1.3 -3.7 1.3 -3.7z m2 -10.7 c0 -0.2 -1.4 -1.6 -3.1 -3.3 -2.6 -2.4 -3 -2.5 -2 -0.7 1.1 2.2 5.1 5.3 5.1 4z m16 -8.2 c1 -1.2 0.4 -2.5 -3.8 -7.2 -2.7 -3.2 -5.9 -6.7 -7.1 -7.7 -1.3 -1.2 -2.1 -3.1 -2.1 -5.3 0 -3.1 0.2 -3.3 3.6 -3.3 3.2 0 4.6 0.9 11 7.4 l7.4 7.4 0 -13.9 0 -13.9 3.5 0 3.5 0 0 14.8 c0.1 13.3 0.2 14.4 1.4 11.5 0.8 -1.7 3.9 -4.9 6.9 -7.2 3.1 -2.2 5.8 -4.5 6.2 -5.1 0.3 -0.5 2.2 -1 4.1 -1 3.3 0 3.4 0.2 3.4 3.7 0 3.2 -0.9 4.6 -7.7 11.6 -6.9 7.1 -7.6 8.1 -5.8 8.7 2.2 0.9 4.1 -0.1 12 -6 5.8 -4.3 9.2 -6.2 15.8 -9 4.4 -1.8 4.7 -2.1 4.7 -5.8 0 -3.6 0.3 -3.9 6.6 -7.6 3.6 -2 6.4 -3.9 6.2 -4.1 -0.2 -0.3 -2.6 0.2 -5.3 1 -2.6 0.8 -7 1.5 -9.7 1.5 -4.5 0 -4.8 -0.2 -4.8 -2.5 0 -2.2 -1.2 -3.1 -9.2 -6.9 -7.9 -3.7 -13.1 -7 -25.8 -16.4 -1.6 -1.1 -2.7 -0.7 -8.6 3.3 -7.1 4.9 -17.9 10.6 -27.6 14.5 -5.4 2.2 -5.8 2.6 -5.8 5.7 0 2.8 -0.3 3.3 -2.4 3.3 -4.6 0 -16.8 -3 -21.7 -5.4 -4.9 -2.3 -4.9 -2.3 -4.3 -0.2 2.9 9.5 8.9 14 27.9 21.1 12.9 4.8 15.1 6 20.2 10.6 4.7 4.3 5.5 4.6 7.3 2.4z m232.8 -17.7 c10.9 -7.5 23.5 -28.9 28.7 -48.8 1.3 -5.1 3.8 -29 3.1 -29.8 -0.2 -0.1 -3.2 3.5 -6.8 8 -3.6 4.6 -10.5 12.8 -15.3 18.3 -6.4 7.3 -8.3 10.1 -7.1 10.3 2 0.4 2.2 5.4 0.2 8.5 -0.8 1.2 -2.4 5.8 -3.6 10.2 -1.1 4.4 -4.6 13.1 -7.5 19.4 -3 6.2 -5.5 11.6 -5.5 11.8 0 0.6 8.1 -4.1 13.8 -7.9z m-417.6 -0.5 c-3.9 -7.6 -7.3 -17 -9.7 -26.8 -2.7 -11 -3.1 -15.1 -1.4 -15.7 0.7 -0.2 -1.7 -3.8 -5.3 -7.8 -3.6 -4.1 -10.2 -12.4 -14.8 -18.5 l-8.3 -11 0.6 13 c0.4 9.8 1.2 15.1 3.1 21.8 5.8 19.6 19 39.5 32.1 48.4 5.8 3.8 6.8 2.9 3.7 -3.4z"/>
 </g>
 <g fill="#b2b1a4">
  <path d="M201.1 553.1 c-2.8 -3.9 -3 -14 -0.3 -16.4 1.7 -1.6 8.2 -2.4 8.2 -1.1 0 0.3 -1.1 1.9 -2.4 3.5 -2.7 3.1 -4.2 10.3 -3.2 14.4 0.8 3.3 0.2 3.2 -2.3 -0.4z"/>
  <path d="M358.8 550.4 c0.2 -3.3 -0.1 -7 -0.6 -8.4 -0.9 -2.4 -0.9 -2.3 -2.2 1.5 -1.8 5.7 -3 6.6 -3 2.3 0 -2.9 -0.7 -4.4 -3.2 -6.7 -3.1 -2.9 -3.1 -3 -1.4 -5.6 2.1 -3.3 5.9 -3.1 6.4 0.3 0.2 1.5 1 2.2 2.5 2.2 3.4 0 4.8 1.4 5.8 5.9 0.9 4.3 -0.1 8.3 -3.3 12.5 -1.3 1.6 -1.4 1.2 -1 -4z"/>
  <path d="M326.1 551.7 c-1.3 -3.8 -0.8 -12 0.9 -14.6 0.5 -0.9 1.7 -1.2 3 -0.8 1.7 0.4 2.8 -0.1 4.2 -1.9 1.1 -1.3 2.9 -2.4 4.2 -2.4 2.6 0 8.6 5.8 8.6 8.4 0 2.6 -4.1 13.6 -5 13.6 -0.4 0 -1.1 -2.1 -1.4 -4.7 -1.2 -8.5 -2.5 -11.3 -5.1 -11.3 -2.9 0 -3.9 1.6 -6.3 10.6 l-1.9 6.9 -1.2 -3.8z"/>
  <path d="M210 550 c-2.7 -5.2 -2.5 -8 0.8 -14 3.2 -5.9 4.4 -6.5 8.3 -4.5 3.7 2 3.7 3.4 -0.1 7 -3.1 2.9 -5 7.8 -5 12.8 0 3.8 -1.6 3.4 -4 -1.3z"/>
  <path d="M223.7 550.3 c-0.9 -2.1 -1.9 -5.3 -2.2 -7.2 -0.6 -3 -0.3 -3.8 3.6 -7.7 2.4 -2.4 5 -4.4 5.8 -4.4 0.8 0 3.1 1.9 5.3 4.2 3.5 3.9 3.8 4.5 3.8 10.2 0 8.3 -1.5 10.3 -2.4 3.2 -0.3 -3.1 -1.4 -6.9 -2.4 -8.6 l-1.9 -3 -2.8 3 c-2.2 2.3 -2.9 4.1 -3.3 8.5 -0.2 3 -0.8 5.5 -1.2 5.5 -0.4 0 -1.4 -1.7 -2.3 -3.7z"/>
  <path d="M217.4 521.5 c0.3 -3.3 0.9 -9.8 1.1 -14.5 0.4 -6.4 4.7 -26.6 6.1 -28.8 0.1 -0.2 2.4 2 5.2 4.8 3.5 3.5 5.6 6.7 6.8 10.3 0.9 2.9 2.3 6.6 3.1 8.2 1.2 2.5 0.7 2.2 -3 -1.7 -2.4 -2.7 -4.6 -4.8 -5 -4.8 -0.9 0 2.5 6.8 5.9 12 2.5 3.8 4.1 9 2.8 9 -0.4 0 -1.8 -1 -3.1 -2.2 -2.2 -2.1 -2.4 -2.1 -1.7 -0.3 0.4 1.1 1.5 3.1 2.4 4.5 3.5 5.2 3.3 5.4 -1.3 1.6 -2.6 -2.1 -4.7 -3.6 -4.7 -3.3 0 0.3 1.4 2.6 3 5 1.7 2.5 3 4.7 3 5.1 0 0.3 -1.5 -0.3 -3.2 -1.4 -1.8 -1 -5.3 -2.4 -7.8 -2.9 -4.4 -1 -4.6 -1 -7.4 2.2 l-2.8 3.2 0.6 -6z"/>
  <path d="M326 526.4 c0 -0.6 1.5 -3.5 3.3 -6.5 1.8 -3 3.7 -6.1 4.1 -6.9 0.5 -0.8 -1.4 0.7 -4.3 3.5 -5.9 5.6 -6.5 5 -2 -2.1 1.8 -2.7 5.6 -9.4 8.5 -14.9 6.1 -11.3 6.4 -10.8 4 5.3 -1.4 9.1 -1.5 9.4 -6.7 15 -2.9 3.1 -5.6 6.1 -6.1 6.7 -0.5 0.5 -0.8 0.5 -0.8 -0.1z"/>
  <path d="M264.5 505.8 c-17.2 -22.9 -18 -24.4 -21 -42.3 -2.1 -12.1 -2.3 -12.8 -3.4 -10 -0.8 1.8 -1.1 6.7 -0.9 12.7 l0.3 9.8 -5.5 -6.2 c-12.5 -13.9 -20.9 -27.6 -27.5 -44.8 -5.6 -14.5 -5.9 -12.7 4.9 -29 5.3 -7.9 9.4 -14.6 9.1 -14.8 -0.8 -0.8 -17 3 -19.4 4.5 -2.3 1.5 -2.4 1.4 -1.7 -0.3 5.3 -13.1 16.1 -53.4 18.7 -69.4 0.7 -4.1 1.3 -7.7 1.5 -7.8 0.6 -0.8 19.4 15.1 19.2 16.2 -0.4 1.8 6.2 9.4 9.6 10.9 1.7 0.8 5.3 1.8 8.1 2.2 l4.9 0.7 -3.1 2.6 c-1.7 1.5 -3.7 3.8 -4.4 5.2 -0.9 1.8 0.3 1.1 4.3 -2.5 7.8 -7.2 18.8 -13.5 23.5 -13.5 4.9 0 23.4 9.2 28.5 14.2 3.6 3.6 4.9 6.8 2.8 6.8 -0.6 0 -0.9 -0.3 -0.8 -0.7 0.4 -1.8 -1.4 -5.3 -2.8 -5.3 -5.3 0 -19.1 22.6 -21.4 35.1 -1.5 8.3 -2.3 9.7 -4.4 8 -0.9 -0.8 -1.7 -2.3 -1.8 -3.5 -0.1 -1.1 -0.4 2.6 -0.7 8.4 -0.5 7.9 -0.9 10.5 -1.9 10.5 -0.9 0 -3.3 -5 -6.1 -12.5 -5.4 -14.1 -6.9 -17.2 -12.1 -25 -5.2 -7.6 -13 -14.6 -22.8 -20.5 -9.4 -5.6 -9.6 -6 -10.8 -20.4 -0.5 -6.7 -1.1 -8.8 -3 -11 l-2.4 -2.6 0.9 3 c0.5 1.7 1.7 9.4 2.6 17.2 1.8 15.8 3.6 23.2 6.2 25.5 1 0.8 4.5 3.1 7.8 5.1 3.3 1.9 7.2 4.8 8.7 6.4 1.4 1.5 6.8 10.3 12 19.5 10.6 19.1 25.1 40.4 28.8 42.3 1.4 0.7 4.4 1.8 6.7 2.4 3.7 1 4.9 0.9 10.5 -1.3 l6.3 -2.5 -14.5 13.9 -14.5 13.9 -8 -7.7 c-4.4 -4.3 -17.1 -16 -28.2 -26.2 l-20.3 -18.4 -0.1 -12.1 c-0.1 -14.6 -1.7 -11.8 -1.8 3.3 l-0.1 10.3 18.9 19.2 c29.1 29.5 35.9 38.1 38.9 49.1 0.9 3.3 0.8 4.6 -0.8 8.2 -1.1 2.4 -2.5 8.9 -3.2 14.4 l-1.2 10.1 -1.1 -4.3 c-0.6 -2.4 -3.9 -9.4 -7.3 -15.6 -3.5 -6.1 -7.1 -13.1 -8.2 -15.4 l-1.9 -4.3 0 3.1 c-0.1 3.7 1.4 8.1 6.3 18.7 2 4.3 3.6 8.2 3.6 8.6 0 0.4 1.5 2.9 3.4 5.6 3.2 4.4 3.4 5.1 2.2 7.8 -0.6 1.7 -1.6 3.2 -2.2 3.4 -0.5 0.2 -4.1 -3.9 -7.9 -8.9z m5.5 -160.3 c0.8 -0.9 0.8 -1.5 0.2 -1.5 -1.8 0 -4.2 1.2 -4.2 2.1 0 1.4 2.6 1 4 -0.6z m30.7 -0.1 c0.2 -0.6 -1 -1.7 -2.7 -2.4 -2.4 -1 -3.4 -1 -4.3 -0.1 -0.9 1 -0.8 1.6 0.8 2.7 2.2 1.6 5.6 1.5 6.2 -0.2z"/>
  <path d="M328 505.6 c0 -1.5 6 -11.9 9.7 -16.7 5.2 -6.9 7.6 -8.8 4 -3.3 -1.4 2.2 -4.9 7.6 -7.7 12.2 -4.5 7.3 -6 9.2 -6 7.8z"/>
  <path d="M124.6 495.9 c4.9 -3.9 12.7 -13 16.2 -18.9 1.5 -2.4 4.2 -8.1 6 -12.5 2.7 -6.5 3.2 -7.3 2.8 -4.1 -0.5 3.6 -4.1 11.8 -11.2 24.9 -1.7 3.2 -4.6 6.3 -8.6 9.3 -6.8 5 -11.2 6.1 -5.2 1.3z"/>
  <path d="M437.5 493.1 c-17.3 -5.9 -22.6 -9.3 -29.3 -19 -4.4 -6.2 -14.2 -24.8 -14.2 -26.8 0 -0.7 -0.5 -1.3 -1.1 -1.3 -0.6 0 -0.8 1.1 -0.5 2.8 0.3 1.5 1 6.1 1.6 10.2 1.4 9.3 5.4 23 8.6 29.3 l2.5 4.8 -3.2 -1.7 c-5 -2.5 -9.6 -6.1 -21.2 -16.4 -5.9 -5.2 -10.7 -10 -10.7 -10.6 0 -0.6 1.5 -4.5 3.3 -8.5 3.8 -8.2 6.7 -16.7 7 -19.8 0.2 -2.5 2.8 -2.1 10.4 1.7 l5.3 2.5 2 -2.3 c1.6 -1.8 2.6 -2.1 5.5 -1.6 7.3 1.4 34.8 15.7 48 25.1 15.6 11.1 21.7 14.6 32.1 18.5 l7.9 2.9 -11.1 0.1 c-23.4 0.1 -38.9 -5.5 -51.9 -18.6 -7.7 -7.8 -8.1 -7.5 -3.4 1.8 4.7 9.3 11.4 18.6 17.7 24.6 3.6 3.4 6.4 6.2 6.2 6.1 -0.3 0 -5.4 -1.7 -11.5 -3.8z"/>
  <path d="M168.1 488.3 c4.4 -8.9 8.6 -24.4 9.6 -35 0.3 -4 1 -7.3 1.5 -7.3 0.5 0 0.6 3 0.2 7.3 -0.6 6.5 -1.3 10.7 -4.8 26.2 -1 4.7 -5.6 12.6 -8.9 15.3 -0.8 0.7 0.3 -2.2 2.4 -6.5z"/>
  <path d="M86.5 480.7 c9.1 -3.4 18 -8.7 30.7 -18.1 11.7 -8.6 21.7 -14.9 20.4 -12.8 -0.4 0.7 0 2.2 0.8 3.4 2.6 3.7 2.1 9.3 -1.1 11.8 -16.1 12.3 -23.2 15.3 -38.8 16.4 -3.8 0.2 -9.5 0.7 -12.5 1.1 l-5.5 0.6 6 -2.4z"/>
  <path d="M482 465 c-30.4 -10.7 -61.7 -33.2 -80.2 -57.6 -4 -5.3 -4 -5.5 -2.3 -7.4 1 -1.1 2.3 -2 3 -2 0.7 0 3.8 2.3 7.1 5.2 10.8 9.5 23.8 19.4 31.9 24.5 18.5 11.4 27.8 15.8 52.4 24.2 9.1 3.1 16.8 6.1 17 6.5 0.2 0.4 -1.1 2.8 -3 5.2 l-3.3 4.4 -7 0 c-5.3 0 -9.3 -0.8 -15.6 -3z"/>
  <path d="M62.1 462.3 l-3 -3.6 10.7 -3.7 c31.5 -10.8 53.9 -23.2 76.2 -42.4 13.8 -11.8 20.5 -17.3 19.7 -16 -0.8 1.3 3.8 2.8 5.4 1.8 2.1 -1.3 -2.2 5.7 -8.1 13 -10.8 13.4 -22.9 23.6 -43 36.2 -19.4 12.1 -36.5 18.3 -50.7 18.4 -3.6 0 -4.6 -0.5 -7.2 -3.7z"/>
  <path d="M422 441.9 c-3.6 -2.2 -9.4 -5.5 -13 -7.4 -11.8 -6 -28 -20 -28 -24.2 0 -2.4 3.2 -6.3 5.1 -6.3 1.2 0 14 12.7 26.9 26.6 4.1 4.5 9.5 9.7 12 11.7 5.8 4.7 5.1 4.6 -3 -0.4z"/>
  <path d="M508.5 441.4 c-19.1 -3.5 -44.3 -10.9 -52.2 -15.3 -1.6 -0.9 -1.5 -1.1 0.9 -2 5.6 -2.1 15.6 -2.3 32.5 -0.7 13.8 1.4 18.7 1.5 25.3 0.6 4.5 -0.6 8.9 -1.4 9.7 -1.7 3.1 -1.2 0.3 1.5 -3.4 3.3 l-3.8 1.8 6.5 0.9 c3.5 0.4 6.6 1 6.8 1.2 0.3 0.2 -1.3 3.3 -3.5 6.7 -4.5 7.3 -5.5 7.6 -18.8 5.2z"/>
  <path d="M43.6 436.1 c-2.1 -3.3 -3.5 -6.5 -3.1 -7.1 0.3 -0.5 3.7 -1 7.6 -1 7.9 0 9 -1.3 2.9 -3.7 -2.2 -0.9 -4 -2 -4 -2.5 0 -0.5 0.8 -0.4 1.8 0.1 0.9 0.5 5.3 1.4 9.7 2.1 6.5 0.9 10.9 0.8 23.5 -0.4 19.6 -2 19.7 -2 21 0.5 2 3.7 -1 6.5 -10.1 9.4 -9.4 3 -29.5 7.1 -39 8.1 l-6.6 0.6 -3.7 -6.1z"/>
  <path d="M154.5 433.4 c3.3 -3.3 9.7 -10.4 14.2 -15.9 7.8 -9.6 14.5 -16.5 16 -16.5 0.4 0 -0.7 1.5 -2.5 3.3 -2.6 2.7 -3 3.6 -2 4.6 1.1 1.1 1 1.2 -0.1 0.6 -0.9 -0.5 -1.2 -0.4 -0.7 0.3 1 1.6 2.6 1.5 2.6 -0.2 0 -0.8 0.8 -1.3 1.8 -1.2 0.9 0.2 2.8 -0.8 4.1 -2.2 2.1 -2.3 2.4 -2.4 3.3 -0.9 0.7 1.3 0.2 2.6 -1.6 5 -3.3 4.3 -7.1 7.6 -6.3 5.4 0.3 -0.9 0.2 -1.9 -0.3 -2.2 -0.6 -0.4 -1 -0.2 -1 0.3 0 0.6 -1.1 2 -2.5 3.3 -1.3 1.3 -2.5 3 -2.5 3.7 0 2.6 -8.1 9 -14.3 11.2 -3.4 1.2 -7.3 3 -8.7 4 -5.4 3.6 -5.3 3 0.5 -2.6z"/>
  <path d="M383.9 432 c-1.3 -1 -1.9 -1.9 -1.3 -2 0.6 0 1.9 0.9 2.9 2 2.3 2.6 1.4 2.6 -1.6 0z"/>
  <path d="M185 431.2 c0 -0.4 2.1 -2.8 4.7 -5.2 l4.7 -4.5 -4.3 5.3 c-4.3 5.2 -5.1 5.9 -5.1 4.4z"/>
  <path d="M443.5 411.9 c-3.9 -0.5 -9.9 -2.3 -13.5 -4 -6.8 -3.2 -20.4 -13 -21.3 -15.4 -0.6 -1.3 4.3 -6.4 11.3 -11.7 5.1 -3.9 14.1 -15.3 14.4 -18.3 0.2 -1.8 2.9 -4.8 9.3 -10.3 11.2 -9.7 11.4 -9.9 30.8 -21.7 8.8 -5.4 17.3 -10.8 18.8 -12.1 6.5 -5.5 5.7 -2.5 -2.9 10.8 -7.5 11.5 -12 16.1 -23.6 23.9 -10.6 7.2 -11.6 8.4 -6 7.5 7.8 -1.2 20.7 -5.8 30.2 -10.8 l9.5 -4.9 -5.7 0.4 c-3.3 0.2 -5.8 0 -5.8 -0.6 0 -0.5 1.2 -2.4 2.8 -4.1 1.5 -1.7 3.4 -4.2 4.2 -5.4 1 -1.5 6.1 -4.1 14.5 -7.6 7.2 -2.9 15.4 -6.5 18.3 -8 2.8 -1.4 5.2 -2.5 5.2 -2.3 0 1.8 -5.7 16.2 -8.6 21.7 -7.4 14 -18 22.9 -33.7 27.9 -11.8 3.7 -17.8 4.8 -34.6 6.2 -16.4 1.3 -29.4 5.1 -27.5 8 0.8 1.4 9.5 1.1 17.6 -0.7 7.1 -1.5 14.1 -1.2 29.1 1.1 1.5 0.3 6.2 0 10.4 -0.5 4.2 -0.6 7.8 -0.8 8.1 -0.6 0.8 0.9 -13.5 7.5 -19.9 9.2 -7.9 2.1 -34.8 2.5 -45.8 0.6 -8.7 -1.5 -11.6 -0.3 -5.5 2.3 12.5 5.3 30 9.1 52.4 11.3 4.7 0.5 7.8 1.1 7 1.4 -6.8 2.6 -22.6 6.8 -27 7.2 -3 0.2 -8.6 0 -12.5 -0.5z"/>
  <path d="M485.7 412.1 c-2 -0.4 -4 -1 -4.3 -1.3 -0.3 -0.4 0.8 -2.1 2.4 -3.9 l2.9 -3.3 -2.1 -1.7 c-2 -1.7 -2 -1.7 2.4 -2.3 2.5 -0.3 11.5 -1 20 -1.6 8.5 -0.6 21.3 -1.9 28.5 -3 7.1 -1 13.1 -1.7 13.3 -1.5 0.2 0.1 -1.3 4.1 -3.3 8.8 l-3.7 8.4 -9.7 0.7 c-17.1 1.1 -42.5 1.5 -46.4 0.7z"/>
  <path d="M58 410.9 c-3.6 -0.4 -11.7 -1.1 -18.1 -1.5 l-11.6 -0.7 -2.6 -6.1 c-1.5 -3.4 -3.3 -7.8 -4.2 -9.8 l-1.5 -3.7 3.3 1 c9.9 2.9 33.7 7.1 46.1 8.1 l14.2 1.2 0.2 6.3 0.3 6.3 -9.8 -0.2 c-5.4 0 -12.7 -0.5 -16.3 -0.9z"/>
  <path d="M101.5 408.2 c-13.3 -4.5 -13.2 -4.7 0.9 -6.1 14.5 -1.4 25 -3.8 37.3 -8.7 4.8 -1.8 8.8 -3.2 9 -3 0.8 0.8 -7.7 11.4 -11.5 14.3 -5.3 4 -9.5 5.2 -19.7 5.8 -6.8 0.4 -9.2 0 -16 -2.3z"/>
  <path d="M102 388.5 c-4.8 -1.2 -19.7 -8.3 -18.8 -9 0.2 -0.1 3 0.1 6.3 0.5 3.3 0.5 10.5 0.3 16 -0.2 7.4 -0.8 13.5 -0.7 23.3 0.2 l13.2 1.3 0 3.2 0 3.3 -7.5 1.1 c-10 1.5 -25.7 1.3 -32.5 -0.4z"/>
  <path d="M497.9 383.4 c1.9 -2.1 5.8 -6 8.6 -8.5 5 -4.4 5.7 -4.6 16.6 -6.7 13.3 -2.5 34.7 -5.5 35.8 -5 0.4 0.2 -0.3 3.7 -1.6 7.9 -2.2 7.3 -2.5 7.7 -5.5 8.2 -1.8 0.2 -11.2 1.8 -20.8 3.5 -9.6 1.7 -21.8 3.4 -27 3.8 l-9.5 0.7 3.4 -3.9z"/>
  <path d="M56.4 383.5 c-11.6 -2.2 -41.3 -9 -41.9 -9.7 -0.7 -0.9 -3.5 -12.1 -3.1 -12.5 0.2 -0.3 4.9 0.2 10.3 1.1 5.4 0.8 17.6 2.7 27.1 4.2 9.4 1.5 17.2 3 17.2 3.5 0 0.5 1.9 2.8 4.1 5.1 11.2 11.5 9.6 12.5 -13.7 8.3z"/>
  <path d="M376.6 382.2 c-0.3 -0.6 -2.6 -11.8 -2.6 -12.9 0 -0.2 -0.7 -0.3 -1.5 -0.3 -3 0 -1.3 -1.6 7.8 -7.2 33.7 -20.5 86.6 -77.8 104.3 -113 1.9 -3.8 3.7 -6.8 4.1 -6.8 1 0 -0.7 27.8 -2.3 36.8 -2.7 15.8 -10.7 32.2 -22 45.3 -6.5 7.5 -25.4 25.3 -32.9 31 -11.8 8.9 -26.6 17.1 -41.2 23 -9.8 3.9 -13.2 4.9 -13.7 4.1z"/>
  <path d="M179.4 375.7 c-22 -9.2 -31.9 -16.1 -52.9 -37.2 -19.6 -19.6 -28.7 -32.7 -33.4 -47.9 -2.9 -9.5 -5.4 -48.6 -3.1 -48.6 0.6 0 1 0.7 1 1.5 0 4.5 18.2 33.9 31.5 51 25.3 32.4 53.7 59.1 72.5 68.2 4.1 2 6.9 3.8 6.1 4.1 -0.7 0.2 -2.6 3.3 -4.2 6.8 -3.4 7.8 -3.7 7.8 -17.5 2.1z"/>
  <path d="M112.1 370.9 c-12.3 -1 -26.7 -4.7 -34.9 -8.8 -9.4 -4.7 -18.5 -14.3 -23.2 -24.3 -3.8 -8.2 -7.5 -20.8 -6.1 -20.8 0.4 0 3.6 1.5 7.1 3.4 3.6 1.8 10.9 5 16.3 7.1 8.4 3.2 10 4.2 11.2 6.9 0.7 1.7 2.3 4.6 3.5 6.4 2.4 3.5 2.1 3.7 -2.8 2.3 -7.2 -2.1 -2 2.2 11.8 9.6 7.3 4 24.1 9.8 26.3 9 0.6 -0.2 -2.7 -3.1 -7.4 -6.5 -10.6 -7.8 -12.5 -9.5 -18.3 -16.6 -4.7 -5.9 -13.2 -21.3 -12.2 -22.4 0.4 -0.3 1.6 0.4 2.9 1.5 1.9 1.7 10.7 7.9 26.4 18.5 5.8 4 14.1 11.7 12.5 11.8 -0.7 0 -1.1 0.3 -0.8 0.8 1 1.6 2.1 14.8 1.7 21 -0.1 1.4 -0.7 2.2 -1.8 2.1 -1 -0.1 -6.5 -0.6 -12.2 -1z"/>
  <path d="M530.3 351.2 c0.8 -0.9 2.6 -5.4 3.8 -9.9 l2.3 -8.1 15.5 -5.6 c8.5 -3.1 15.6 -5.4 15.9 -5.2 0.7 0.7 -2.9 21 -3.9 22 -0.9 1 -31 8.6 -33.8 8.6 -1.1 0 -1.1 -0.3 0.2 -1.8z"/>
  <path d="M27.5 347 c-9.9 -2.7 -18.8 -5 -19.7 -5 -1.6 0 -2.1 -1.2 -3.4 -9.5 -0.3 -2.2 -0.8 -4.8 -1.1 -5.9 -0.3 -1.2 -0.1 -1.6 0.6 -1.2 1.3 0.9 1.5 -0.6 0.2 -1.9 -0.6 -0.6 -1.3 -3 -1.7 -5.4 -0.6 -3.6 -0.4 -4.3 0.7 -3.8 0.8 0.3 8.6 3.5 17.4 7.2 26.4 10.9 23.5 8.9 26 18.6 1.2 4.6 2.5 9.2 2.9 10.2 1.2 2.6 -1.6 2.2 -21.9 -3.3z"/>
  <path d="M308.1 332.8 c-1.3 -0.7 -2.4 -1.5 -2.5 -1.8 -0.2 -1 11.2 -10.9 14.5 -12.5 4.8 -2.5 5.6 -0.7 2.6 5.8 -3.5 7.7 -9.5 11.1 -14.6 8.5z"/>
  <path d="M246.9 329.9 c-3.3 -3.5 -5.1 -8.8 -3.7 -10.6 1.5 -1.9 6.8 0.7 13.3 6.3 6.5 5.6 6.1 7.4 -1.7 7.4 -4.3 0 -5.4 -0.4 -7.9 -3.1z"/>
  <path d="M294 326.5 c-1.3 -1.6 -4.5 -2.1 -3.6 -0.6 0.3 0.5 -1.1 0.3 -3.2 -0.4 l-3.7 -1.3 -0.5 -18.4 -0.6 -18.3 -0.2 18.8 c-0.1 11 -0.6 18.7 -1.2 18.7 -0.5 0 -2.1 -0.5 -3.6 -1.2 -2.3 -1.1 -2.8 -1 -4.4 1 -1.7 2 -2.3 2.1 -6.1 1.3 -2.5 -0.6 -5.6 -2.3 -7.8 -4.4 -4.4 -4.2 -6.5 -5.3 -20.5 -10.6 -19.8 -7.4 -23.3 -10.5 -28.2 -24.7 -1.8 -5.4 -3.2 -10 -3 -10.1 0.2 -0.2 2.7 1.3 5.7 3.3 6.9 4.7 12.8 7.2 20.6 8.8 6.1 1.3 8.1 0.7 4.6 -1.3 -2.5 -1.4 -1.3 -2.3 10.4 -7.4 12.5 -5.5 21 -10.2 28.7 -16 l6 -4.5 6.5 5.3 c10.1 8 15.3 11.3 25.8 16.1 8.1 3.8 9.3 4.7 8.3 5.9 -2.2 2.6 -0.2 3 6.3 1.3 9.8 -2.6 17.3 -5.7 22.8 -9.4 6.2 -4.1 7.1 -4.3 3.7 -0.6 -1.4 1.5 -3.3 4.1 -4.2 5.9 -1.6 3.2 -10.1 9.8 -18.3 14.3 -2.4 1.3 -4.3 2.7 -4.3 3.2 0 0.4 1.8 0.8 4.1 0.8 6.7 0 4.6 2.7 -5.1 6.6 -10.3 4.1 -12.8 5.4 -20.5 11.2 -3.3 2.4 -7.6 5.2 -9.6 6.3 -3.2 1.6 -3.9 1.7 -4.9 0.4z m-18 -9.7 c-3.1 -4.4 -9.8 -11.5 -13.5 -14.1 -1.9 -1.3 -0.9 0.2 2.7 4.1 3.2 3.5 7.2 8.1 9 10.2 3.7 4.7 5 4.6 1.8 -0.2z m28.9 -15.2 c0.2 -0.6 -0.9 0.1 -2.5 1.5 -1.6 1.4 -4.6 3.8 -6.8 5.3 -3.1 2.3 -6.6 7.6 -6.6 10.1 0 0.8 15.5 -15.6 15.9 -16.9z"/>
  <path d="M61.5 321.5 c-3.3 -1.4 -8.1 -3.6 -10.6 -5 -5.8 -3.1 -5.9 -3.1 -5.9 0 0 1.4 -0.3 2.5 -0.6 2.5 -1.6 0 -20.9 -9.7 -31.6 -15.8 l-11.8 -6.7 -0.2 -4.5 c-0.2 -5.3 0.3 -20.4 0.7 -20.8 0.2 -0.2 3.9 2.4 8.2 5.7 11.7 8.7 23.4 16.1 35.8 22.7 15.1 7.9 19.5 11 19.5 13.7 0 1.2 0.9 3.6 2 5.2 2 3.1 2.6 5.5 1.3 5.5 -0.5 -0.1 -3.5 -1.2 -6.8 -2.5z"/>
  <path d="M514.9 317.8 c3.2 -5.8 6.5 -8.2 26.4 -19 5.9 -3.2 14.8 -8.3 19.7 -11.3 l9 -5.5 0 11.6 0 11.5 -13.7 6.6 c-17.4 8.3 -18.3 8.5 -20.4 5.9 -1.6 -1.9 -2 -2 -5.1 -0.7 -8.5 3.5 -16 6.1 -17.4 6.1 -1.1 0 -0.7 -1.3 1.5 -5.2z"/>
  <path d="M483.8 318.3 c0.6 -1 1.3 -3.8 1.7 -6.1 0.4 -2.4 3.1 -9.4 6.1 -15.5 2.9 -6.2 6.3 -14.8 7.4 -19.2 1.2 -4.4 2.8 -9 3.6 -10.2 1.8 -2.9 0.5 -2.9 -4 -0.2 -2 1.2 -3.6 1.7 -3.6 1.2 0 -1.7 7.5 -11.9 14.5 -19.8 8.1 -9.2 20.9 -25.2 24.5 -30.7 1.4 -2.1 2.9 -3.8 3.3 -3.8 1 0 0 28.5 -1.4 37 -3.5 22.5 -18.1 48.1 -32.7 57.4 -11.4 7.2 -20.4 11.8 -19.4 9.9z"/>
  <path d="M80 310.6 c-14.5 -9.7 -27.4 -28.6 -33.6 -49.3 -2.5 -8.1 -2.7 -10.6 -3.1 -30.3 l-0.4 -21.5 3.4 6.1 c3.8 6.9 14.9 21.9 24.9 33.8 13.9 16.3 15 17.7 14.3 18.4 -0.3 0.4 -2.5 -0.3 -4.7 -1.6 -2.3 -1.2 -4.2 -2.1 -4.3 -2 -0.8 1 5.3 21.6 8.6 29.2 4.7 10.5 6.1 16 4.8 19.3 -1.2 3.2 -2.5 2.9 -9.9 -2.1z"/>
  <path d="M539 278.2 c1 -3.9 2.2 -9.1 2.5 -11.6 0.7 -4.5 1.3 -5.1 12.9 -15 6.6 -5.7 12.3 -10.2 12.5 -10 0.8 0.7 2.8 21.9 2.1 22.4 -6.4 4.7 -23.6 16.3 -27.1 18.4 l-4.7 2.7 1.8 -6.9z"/>
  <path d="M33.4 276.1 c-9.3 -6.1 -16.5 -11.6 -25.2 -19.1 -6 -5.2 -6.1 -5.6 -3.7 -19 0.8 -4.7 1.5 -8.7 1.5 -8.9 0 -0.3 4.8 4.2 10.8 10 5.9 5.8 13.3 12.8 16.5 15.6 4.9 4.4 5.7 5.7 5.7 8.7 0 1.9 1.1 6.6 2.5 10.4 1.4 3.8 2.5 7.2 2.5 7.6 0 1.4 -2.2 0.3 -10.6 -5.3z"/>
  <path d="M28.3 232.8 c-5.6 -6.9 -15.2 -19.9 -16.7 -22.5 -0.8 -1.4 2.1 -11.7 6.6 -23.4 l3 -8 4 5.8 c2.3 3.2 5.6 7.6 7.4 9.9 l3.3 4 -1.4 4.9 c-1.6 5.2 -1.9 21.3 -0.6 30.5 0.5 3 0.7 5.6 0.6 5.8 -0.2 0.2 -2.9 -3 -6.2 -7z"/>
  <path d="M548.1 233.8 c1.2 -6.6 1 -19.6 -0.5 -26.8 l-1.4 -6.4 4.1 -4.9 4.1 -4.8 1.3 3.6 c0.7 2.1 2.7 8.8 4.4 15 l3.2 11.3 -3.8 4.9 c-4.9 6.1 -10.7 12.3 -11.6 12.3 -0.3 0 -0.3 -1.9 0.2 -4.2z"/>
 </g>
</svg>