<?xml version="1.0" encoding="utf-8"?>
<!DOCTYPE svg PUBLIC "-//W3C//DTD SVG 1.0//EN" "http://www.w3.org/TR/2001/REC-SVG-20010904/DTD/svg10.dtd">
<svg version="1.0" xmlns="http://www.w3.org/2000/svg" width="512px" height="512px" viewBox="0 0 512 512" preserveAspectRatio="xMidYMid meet">
 <g fill="#000000">
  <path d="M242 510.9 c-97.4 -4.6 -185.1 -67.2 -222.5 -158.7 -8.8 -21.7 -15 -46.1 -17.5 -68.7 -1.4 -12.9 -1.4 -42.1 0 -55 10.1 -92.9 71.1 -173.6 157.8 -209 21.7 -8.8 46.1 -15 68.7 -17.5 12.9 -1.4 42.1 -1.4 55 0 92.9 10.1 173.6 71.1 209 157.8 8.8 21.7 15 46.1 17.5 68.7 1.4 12.9 1.4 42.1 0 55 -10.1 92.9 -71.1 173.6 -157.8 209 -35.3 14.4 -70.5 20.2 -110.2 18.4z m-19.2 -128.8 c2 -1.1 29.1 -27.5 60.3 -58.8 55.7 -55.9 56.7 -56.9 57.9 -62 0.9 -4.2 0.9 -6.4 0 -10.5 -1.2 -5.2 -2.2 -6.2 -57.9 -62.1 -33.4 -33.6 -58.2 -57.7 -60.5 -58.9 -3.1 -1.6 -5.3 -1.9 -10.6 -1.6 -7.7 0.4 -12.8 3.2 -17 9.4 -3.2 4.9 -4 15.4 -1.5 20.5 0.9 1.9 22.9 24.7 48.8 50.7 l47.2 47.2 -47.2 47.3 c-25.9 25.9 -47.8 48.6 -48.7 50.4 -2 3.9 -2.1 13.2 -0.2 17.6 1.6 4.1 7.1 9.6 11.1 11.3 4.6 2 13.9 1.7 18.3 -0.5z"/>
 </g>
</svg>