<?xml version="1.0" encoding="utf-8"?>
<!DOCTYPE svg PUBLIC "-//W3C//DTD SVG 1.0//EN" "http://www.w3.org/TR/2001/REC-SVG-20010904/DTD/svg10.dtd">
<svg version="1.0" xmlns="http://www.w3.org/2000/svg" width="512px" height="512px" viewBox="0 0 512 512" preserveAspectRatio="xMidYMid meet">
 <g fill="#009e4d">
  <path d="M65.8 510.8 c-16.9 -1.7 -29.9 -13.4 -36.6 -33.2 l-2.7 -8.1 0 -213 0 -213 2.3 -7.5 c3.2 -10.2 6.2 -15.6 11.7 -21.8 8.5 -9.4 17.7 -13.3 31.5 -13.3 10.2 0 17.8 1.9 28.5 7 6.9 3.2 72.6 40.7 309 176.4 25.9 14.8 48.4 27.9 50 29 6 4.2 16.7 15.3 20 20.7 8.6 14.3 8.6 29.7 0 44 -3.3 5.4 -14 16.5 -20 20.7 -1.6 1.1 -54.7 31.8 -118 68 -259.1 148.6 -240.9 138.3 -251.1 141.7 -7 2.3 -16.7 3.2 -24.6 2.4z"/>
 </g>
</svg>