<?xml version="1.0" encoding="utf-8"?>
<!DOCTYPE svg PUBLIC "-//W3C//DTD SVG 1.0//EN" "http://www.w3.org/TR/2001/REC-SVG-20010904/DTD/svg10.dtd">
<svg version="1.0" xmlns="http://www.w3.org/2000/svg" width="512px" height="512px" viewBox="0 0 512 512" preserveAspectRatio="xMidYMid meet">
 <g fill="#ffffff">
  <path d="M242 510.9 c-97.4 -4.6 -185.1 -67.2 -222.5 -158.7 -8.8 -21.7 -15 -46.1 -17.5 -68.7 -1.4 -12.9 -1.4 -42.1 0 -55 10.1 -92.9 71.1 -173.6 157.8 -209 21.7 -8.8 46.1 -15 68.7 -17.5 12.9 -1.4 42.1 -1.4 55 0 92.9 10.1 173.6 71.1 209 157.8 8.8 21.7 15 46.1 17.5 68.7 1.4 12.9 1.4 42.1 0 55 -10.1 92.9 -71.1 173.6 -157.8 209 -35.3 14.4 -70.5 20.2 -110.2 18.4z m68.4 -129.9 c6.2 -4.2 9 -9.3 9.4 -17 0.3 -4.9 0 -7.6 -1.3 -10.1 -0.9 -1.9 -22.9 -24.7 -48.8 -50.6 l-47.2 -47.3 47.2 -47.2 c25.9 -26 47.9 -48.8 48.8 -50.7 2.5 -5.1 1.7 -15.6 -1.5 -20.5 -4.2 -6.2 -9.3 -9 -17 -9.4 -5.3 -0.3 -7.5 0 -10.6 1.6 -2.3 1.2 -27.1 25.3 -60.5 58.9 -55.7 55.9 -56.7 56.9 -57.9 62.1 -0.9 4.1 -0.9 6.3 0 10.5 1.2 5.1 2.2 6.1 57.9 62 31.1 31.3 58.2 57.7 60.1 58.8 5.2 2.9 16.3 2.3 21.4 -1.1z"/>
 </g>
</svg>