<?xml version="1.0" encoding="utf-8"?>
<!DOCTYPE svg PUBLIC "-//W3C//DTD SVG 1.0//EN" "http://www.w3.org/TR/2001/REC-SVG-20010904/DTD/svg10.dtd">
<svg version="1.0" xmlns="http://www.w3.org/2000/svg" width="512px" height="512px" viewBox="0 0 512 512" preserveAspectRatio="xMidYMid meet">
 <g fill="#00752d">
  <path d="M234.5 510.4 c-1.6 -0.2 -7 -0.9 -12 -1.5 -30.1 -3.7 -65.6 -15.3 -91.4 -29.9 l-7.4 -4.2 -17.8 17.8 c-9.9 9.9 -17.9 17.7 -18 17.4 0 -0.3 -10.5 -41 -23.3 -90.5 -12.8 -49.5 -23.2 -90.1 -23.1 -90.2 0.1 -0.3 179.9 45.9 180.5 46.4 0.2 0.2 -7 7.7 -16 16.8 l-16.3 16.3 3.7 1.6 c19.5 8.1 43.6 12.1 68.1 11.3 25.9 -0.9 44.4 -5.6 68 -17.3 17.2 -8.5 29.5 -17.4 43.5 -31.4 14 -14 22.9 -26.4 31.5 -43.5 12.3 -24.6 16.4 -41.7 17.2 -71.2 0.3 -11.2 0.7 -20.3 0.9 -20.3 0.4 0 83.5 16.9 86.2 17.5 1.9 0.5 2.2 1.2 2.2 5.8 0 7.4 -1.8 25.7 -3.5 36.2 -7.1 42.7 -25.7 84.2 -53.1 118.5 -9.1 11.3 -27.7 29.9 -39.4 39.2 -34.4 27.5 -77.3 46.3 -121.5 53.3 -9.5 1.6 -51.8 2.9 -59 1.9z"/>
  <path d="M50.5 267.5 c-20.9 -4.5 -40.7 -8.8 -43.9 -9.5 l-5.9 -1.2 0.6 -14.2 c3.8 -80.8 46.2 -154.3 116.2 -201 22 -14.7 56.2 -29 83.5 -35 31.9 -7 68.6 -7.8 100 -2 24.2 4.4 47 12.1 70 23.6 l17.5 8.7 17.2 -17.1 c9.5 -9.5 17.4 -17 17.6 -16.8 0.7 1 45.8 179.3 45.4 179.7 -0.3 0.2 -21.6 -5 -47.3 -11.5 -25.8 -6.6 -66 -16.8 -89.4 -22.7 -23.4 -6 -42.7 -11 -43 -11.2 -0.2 -0.2 7.2 -8 16.5 -17.3 9.3 -9.3 16.7 -17.1 16.5 -17.4 -1.8 -1.7 -26.8 -8.8 -37.2 -10.6 -14.4 -2.4 -37.9 -2.8 -51.3 -1 -62.5 8.8 -115.4 52.8 -135.4 112.6 -6.1 18.2 -8.2 32.2 -8.2 55.2 0 9.4 -0.4 17.2 -0.7 17.1 -0.4 0 -17.8 -3.8 -38.7 -8.4z"/>
 </g>
</svg>